<svg xmlns="http://www.w3.org/2000/svg" xmlns:xlink="http://www.w3.org/1999/xlink" viewBox="0 0 96.98 98.6"><defs><style>.cls-1{fill:url(#linear-gradient);}.cls-2{fill:url(#linear-gradient-2);}.cls-3,.cls-4{fill:#502a13;}.cls-3{fill-rule:evenodd;}</style><linearGradient id="linear-gradient" x1="26.93" y1="49.3" x2="70.05" y2="49.3" gradientUnits="userSpaceOnUse"><stop offset="0.31" stop-color="#fec259"/><stop offset="1" stop-color="#d38d62"/></linearGradient><linearGradient id="linear-gradient-2" x1="0" y1="48.01" x2="96.98" y2="48.01" xlink:href="#linear-gradient"/></defs><g id="Layer_2" data-name="Layer 2"><g id="Layer_1-2" data-name="Layer 1"><rect class="cls-1" x="26.93" width="43.12" height="98.6" rx="4.65"/><rect class="cls-2" y="8.43" width="96.98" height="79.17" rx="17.8"/><path class="cls-3" d="M31.35,64.93c0,8.63,7.67,15.63,17.14,15.63s17.14-7,17.14-15.63S58,49.3,48.49,49.3,31.35,56.3,31.35,64.93Z"/><path class="cls-4" d="M23.78,30.65A9.22,9.22,0,1,0,33,21.43,9.22,9.22,0,0,0,23.78,30.65Zm31,0A9.22,9.22,0,1,0,64,21.43,9.22,9.22,0,0,0,54.76,30.65Z"/></g></g></svg>