<?xml version="1.0" encoding="utf-8"?>
<!-- Generator: Adobe Illustrator 24.1.2, SVG Export Plug-In . SVG Version: 6.00 Build 0)  -->
<svg version="1.1" id="Layer_1" xmlns="http://www.w3.org/2000/svg" xmlns:xlink="http://www.w3.org/1999/xlink" x="0px" y="0px"
	 viewBox="0 0 97 98.6" style="enable-background:new 0 0 97 98.6;" xml:space="preserve">
<style type="text/css">
	.st0{fill-rule:evenodd;clip-rule:evenodd;fill:#EF544A;}
	.st1{fill-rule:evenodd;clip-rule:evenodd;fill:url(#SVGID_1_);}
	.st2{fill:#6B0F34;}
	.st3{fill-rule:evenodd;clip-rule:evenodd;fill:#6B0F34;}
</style>
<path class="st0" d="M90.7,57.5c0,8.1-2.5,15.6-6.7,21.9c0,0,0,0.1-0.1,0.1c-2.6,3.7-5.8,6.9-9.3,9.6c-7.1,5.5-16,8.8-25.6,9.2
	c-16.9-0.7-31.2-11.4-37.1-26.4c-0.1-0.3-0.3-0.7-0.4-1c-1.6-4.4-2.5-9.2-2.5-14.1c0-4.1,0.6-8,1.7-11.7c0,0-0.1,0-0.1,0
	c1.6-4.6,2.5-9.6,2.5-14.8c0-1.7-0.1-3.4-0.3-5.1c0,0,0,0,0,0c0-0.1,0-0.3,0-0.4c0,0,0,0,0,0v0c0,0,0-0.1,0-0.1
	c0-1.5,1.2-2.8,2.8-2.8h0.1c0.3,0,0.6,0,0.8,0.1c0.1,0,0.3,0.1,0.4,0.1c2.3,0.9,4.4,2.1,6.4,3.5c1,0.7,1.9,1.5,2.7,2.4
	c1.8,1.8,3.2,3.8,4.4,6c3.4-3.7,6.1-8.2,7.7-13.2c0.4-1.3,0.8-2.6,1-3.9c0.5-2.3,0.7-4.8,0.7-7.3V9.3c0-1.8-0.2-3.5-0.4-5.2
	c0,0,0,0,0,0c0-0.1,0-0.3-0.1-0.4c0,0,0,0,0,0c0-0.1,0-0.2,0-0.3c0-1.6,1.3-3,2.9-3c0.2,0,0.4,0,0.6,0.1c0,0,0,0,0,0
	c0.2,0.1,0.4,0.1,0.6,0.2c5.8,1.9,11,5.2,15.3,9.4c1.7,1.7,3.2,3.5,4.6,5.4c0.5,0.7,1,1.4,1.4,2.1c0.7,1.2,1.4,2.5,2,3.8
	c2.3,5,3.6,10.6,3.6,16.4c0,0.7,0,1.5-0.1,2.2c2.7-2.5,4.4-6,4.6-9.9c0-0.1,0-0.2,0-0.2c0.1-1,0.9-1.7,1.9-1.7
	c0.4,0,0.8,0.1,1.2,0.4c0.1,0.1,0.1,0.1,0.2,0.2C85.9,36,90.7,46.2,90.7,57.5z"/>
<linearGradient id="SVGID_1_" gradientUnits="userSpaceOnUse" x1="77.9848" y1="66.514" x2="77.9848" y2="5.9007" gradientTransform="matrix(0.9963 8.554346e-02 -8.554346e-02 0.9963 -24.0912 20.5995)">
	<stop  offset="0" style="stop-color:#F16240"/>
	<stop  offset="1" style="stop-color:#FFDD15"/>
</linearGradient>
<path class="st1" d="M76.2,70.1c-0.4,5.2-2.4,9.9-5.5,13.6c0,0,0,0,0,0.1c-1.9,2.2-4.1,4.1-6.5,5.7c-4.9,3.1-10.7,4.8-16.8,4.5
	C36.6,92.5,28,84.8,25.1,75c-0.1-0.2-0.1-0.4-0.2-0.7c-0.8-2.9-1.1-6-0.8-9.2c0.2-2.6,0.8-5.1,1.7-7.4c0,0,0,0-0.1,0
	c1.3-2.9,2.1-6,2.4-9.3c0.1-1.1,0.1-2.2,0.1-3.3c0,0,0,0,0,0c0-0.1,0-0.2,0-0.2c0,0,0,0,0,0l0,0c0,0,0-0.1,0-0.1
	c0.1-1,0.9-1.7,1.9-1.7l0,0c0.2,0,0.4,0.1,0.5,0.1c0.1,0,0.2,0.1,0.2,0.1c1.4,0.7,2.7,1.6,3.9,2.6c0.6,0.5,1.1,1.1,1.6,1.7
	c1,1.2,1.9,2.6,2.5,4.1c2.4-2.2,4.3-4.9,5.6-8c0.3-0.8,0.6-1.6,0.9-2.4c0.4-1.5,0.7-3,0.9-4.6l0-0.2c0.1-1.1,0.1-2.2,0-3.3
	c0,0,0,0,0,0c0-0.1,0-0.2,0-0.3c0,0,0,0,0,0c0-0.1,0-0.1,0-0.2c0.1-1,1-1.8,2-1.7c0.1,0,0.3,0,0.4,0.1c0,0,0,0,0,0
	c0.1,0.1,0.3,0.1,0.4,0.2c3.6,1.5,6.8,3.9,9.3,6.9c1,1.2,1.9,2.4,2.6,3.7c0.3,0.5,0.5,1,0.8,1.5c0.4,0.8,0.8,1.7,1.1,2.5
	c1.2,3.3,1.7,6.9,1.4,10.7c0,0.5-0.1,0.9-0.2,1.4c1.8-1.4,3.1-3.6,3.5-6c0,0,0-0.1,0-0.2c0.1-0.6,0.7-1.1,1.3-1
	c0.3,0,0.5,0.1,0.7,0.3c0,0,0.1,0.1,0.1,0.1C74.3,56,76.8,62.8,76.2,70.1z"/>
<path class="st2" d="M35.5,59.1c0,2.1,1.7,3.7,3.7,3.7c2.1,0,3.7-1.7,3.7-3.7c0-2.1-1.7-3.7-3.7-3.7C37.2,55.4,35.5,57.1,35.5,59.1z
	 M55,59.1c0,2.1,1.7,3.7,3.7,3.7s3.7-1.7,3.7-3.7c0-2.1-1.7-3.7-3.7-3.7S55,57.1,55,59.1z"/>
<path class="st3" d="M49.3,88c-7.7-0.1-10.8-8.6-11.7-14.9c-0.5-3.6,6.5-4.1,11.7-4.2c5.3,0.1,12.3,0,11.7,4.2
	C60.2,79.3,57,87.9,49.3,88z"/>
</svg>
