<svg xmlns="http://www.w3.org/2000/svg" viewBox="0 0 112.64 123.33"><defs><style>.cls-1{fill:#f05990;}.cls-2{fill:#f4ee76;}.cls-3{fill:#6b1034;}</style></defs><g id="Layer_2" data-name="Layer 2"><g id="Layer_1-2" data-name="Layer 1"><path class="cls-1" d="M100.37,62c0-.08,0-.17,0-.25,11.28-6.49,15.55-20.25,9.53-30.75s-20-13.76-31.35-7.31l-.22-.13C78.32,10.54,68.51,0,56.41,0,44.47,0,34.77,10.26,34.49,23c-11.11-6.31-24.89-3.24-31,7S1.29,54.26,12.45,61v.24C1.11,67.58-3.29,81.3,2.64,91.86s19.92,13.94,31.28,7.59l.21.13c-.09,13,9.62,23.64,21.72,23.75S77.86,113,78,100l.22-.12c11.24,6.55,25.3,3.41,31.41-7S111.6,68.58,100.37,62Z"/><circle class="cls-2" cx="56.32" cy="60.67" r="31.33"/><path class="cls-3" d="M32.72,58.19q22.74-8.82,47.19,0S75.67,83.55,56.24,83.55,32.72,58.19,32.72,58.19Z"/><ellipse class="cls-3" cx="68.05" cy="45.15" rx="2.98" ry="4.37" transform="translate(-12.62 32.44) rotate(-24.61)"/><ellipse class="cls-3" cx="44.59" cy="45.15" rx="4.37" ry="2.98" transform="translate(-15.03 66.89) rotate(-65.39)"/></g></g></svg>