<svg xmlns="http://www.w3.org/2000/svg" viewBox="0 0 96.02 123.49"><defs><style>.cls-1{fill:#8691c8;}.cls-2,.cls-3{fill:#21255e;}.cls-3{fill-rule:evenodd;}</style></defs><g id="Layer_2" data-name="Layer 2"><g id="Layer_1-2" data-name="Layer 1"><path class="cls-1" d="M29.36,111.09H66.65v4a8.38,8.38,0,0,1-8.39,8.39H37.75a8.39,8.39,0,0,1-8.39-8.39Z"/><path class="cls-1" d="M91.86,43.86A43.79,43.79,0,0,1,71.2,81.08l0,0a5.65,5.65,0,0,0-.58.36h0l-.12.08a8.6,8.6,0,0,0-3.8,7.14v13H29.36v-13a8.61,8.61,0,0,0-3.95-7.21h0l-.23-.13A43.86,43.86,0,1,1,91.86,43.86Z"/><path class="cls-2" d="M24.09,26a6.63,6.63,0,1,0,6.63-6.63A6.62,6.62,0,0,0,24.09,26Zm34.58,0a6.63,6.63,0,1,0,6.62-6.63A6.62,6.62,0,0,0,58.67,26Z"/><path class="cls-3" d="M48.53,77c-13.6-.2-19.16-15.27-20.77-26.33-1-6.34,11.51-7.26,20.77-7.46,9.36.2,21.82.08,20.77,7.47C67.79,61.6,62.23,76.8,48.53,77Z"/><path class="cls-2" d="M91.11,12.1c-4,0-23.54-.66-28.81.44S54,16.11,51.92,16.11c-1,0-2.45.05-3.91.06s-2.92-.06-3.91-.06c-2.13,0-5.11-2.47-10.39-3.57S8.92,12.1,4.91,12.1-.29,15.26.06,16.85,3,18.49,3,21.47,5.59,32,8.49,36,21.7,41.06,30,39s11.76-9.63,13.12-12.7S44.6,19.78,48,19.78s3.57,3.48,4.94,6.55S57.8,37,66.06,39s18.57.84,21.47-3.08,5.54-11.5,5.53-14.48,2.56-3,2.9-4.62S95.1,12.1,91.11,12.1ZM38.36,30.81C35.75,34,33.42,37.38,27,38.23S12,37.91,9.45,34,4.8,23.12,6.84,19.32s4.37-5.23,10.06-5.51,14.93-.57,17.78.74,5,2.78,5.5,4.77S41,27.59,38.36,30.81ZM86.56,34c-2.55,3.87-11,5-17.49,4.19S60.26,34,57.65,30.81s-2.27-9.5-1.82-11.49,2.67-3.47,5.52-4.77,12.09-1,17.77-.74,8,1.7,10,5.51S89.12,30.17,86.56,34Z"/></g></g></svg>