<svg xmlns="http://www.w3.org/2000/svg" viewBox="0 0 117.56 101.53"><defs><style>.cls-1{fill:#f0554b;}.cls-2{fill:#710f11;}</style></defs><g id="Layer_2" data-name="Layer 2"><g id="Layer_1-2" data-name="Layer 1"><path class="cls-1" d="M65.36,8.94l-6.58,6.63L52.2,8.94A30.62,30.62,0,0,0,8.92,52.26l49.86,49.27,49.86-49.27A30.62,30.62,0,0,0,65.36,8.94Z"/><path class="cls-2" d="M32,39.81a8.05,8.05,0,1,0,8.05-8A8.05,8.05,0,0,0,32,39.81Zm37.44,0a8.05,8.05,0,1,0,8-8A8.05,8.05,0,0,0,69.45,39.81Z"/><path class="cls-2" d="M58.78,62.67A72.65,72.65,0,0,1,42.62,61c.2,4.1,7.24,7.5,16.16,7.5S74.85,65,75,61A75.9,75.9,0,0,1,58.78,62.67Z"/></g></g></svg>