<svg xmlns="http://www.w3.org/2000/svg" viewBox="0 0 350.23 294.72"><defs><style>.cls-1{fill:#5e3090;}.cls-2{fill:#faa71c;}</style></defs><g id="Layer_2" data-name="Layer 2"><g id="Layer_1-2" data-name="Layer 1"><path class="cls-1" d="M335.57,0H61.14C49.68.19,44.71,5.1,44.77,16.47c0,6.47,1.2,12.87,1.79,19.3,2.53,27.39,5.5,54.75,8.38,82.11q4.29,40.77,8.53,81.57c1.8,17.47,10.1,30.11,25,38.85,22.37,13.07,44.54,26.46,67,39.32,11.54,6.61,22,15.61,36,17.1h1c3.56-1.07,7.2-.23,10.8-.5,6.2-.15,12-1.22,17.52-4.6,14.13-8.72,28.52-17,42.83-25.4,15.46-9.08,31-18.1,46.36-27.28,13.28-7.91,20.63-19.73,22.41-35.08,1.21-10.37,2.15-20.77,3.32-31.14,1.65-14.66,3-29.34,4.61-44,1.23-11.36,2.49-22.73,3.58-34.1,1.43-14.84,3.33-29.64,4.3-44.53.59-9.22.28-18.51,1.92-27.66v-7C347.85-.34,343.55.56,335.57,0Zm-64,207.39c-7.17,9.39-20.88,9.28-28.2-.59-6-8.13-11.53-16.65-17.25-25-9.76-14.26-19.55-28.48-29.19-42.81-1.82-2.71-2.93-3.26-5.45-.64-7.71,8-15.65,15.85-23.61,23.64a7.71,7.71,0,0,0-2.47,6.14c.12,9.47.17,18.95,0,28.42-.14,8.86-6.11,16.3-13.57,17.33-10.07,1.4-18-3.29-20.54-12.3a20.34,20.34,0,0,1-.53-5.41q0-70,0-140.11c0-10.49,7.09-17.87,17.15-18s17.4,7.18,17.5,17.71c.17,17.61,0,35.23.07,52.85,0,1.73-.48,3.56.63,5.63,1.45-1.35,2.76-2.52,4-3.75q33.16-33.14,66.33-66.27c6.9-6.88,16.39-8.15,23.46-3.28,9.07,6.24,10.2,18.74,2.2,26.85-12.84,13-25.73,26-38.85,38.74-3.07,3-3,4.9-.66,8.28Q247,150.07,271,185.57C276,193,276.1,201.43,271.55,207.39Z"/><path class="cls-2" d="M0,53.36c9.37-1.26,18.76-2.43,28.12-3.81,3.06-.46,4.43.15,4.77,3.57,2.86,28.39,6,56.74,8.79,85.14.74,7.51,2.42,7-6.34,7.88-6.44.66-12.91,1.2-19.28,2.32-3.37.6-4.3-.33-4.66-3.48C9.7,130.49,7.81,116,6,101.53,4.27,87.38,2.58,73.21.82,59.06A6.14,6.14,0,0,0,0,57.34Z"/></g></g></svg>